<svg width="115" height="115" viewBox="0 0 115 115" fill="none" xmlns="http://www.w3.org/2000/svg">
<g clip-path="url(#clip0_12_46)">
<path d="M21.7994 4.18872V109.288" stroke="white" stroke-width="5" stroke-linecap="round"/>
<path d="M64.4506 30.8444C64.4506 46.7056 50.6179 60.1656 32.8572 60.1656C15.0965 60.1656 1.26379 46.7056 1.26379 30.8444C1.26379 14.9831 15.0965 1.52319 32.8572 1.52319C50.6179 1.52319 64.4506 14.9831 64.4506 30.8444Z" stroke="white" stroke-width="4"/>
<path d="M24.011 61.6887L98.5714 111.192" stroke="white" stroke-width="4" stroke-linecap="round"/>
<path d="M69.2192 91.2887C67.287 90.093 66.039 88.3581 65.4761 86.0832C64.9181 83.7985 65.1841 81.3751 66.2754 78.8131L66.5054 78.2731C67.2308 76.5687 68.1457 75.2154 69.2496 74.2129C70.3667 73.2052 71.5685 72.6245 72.855 72.4705C74.1541 72.3115 75.3705 72.5824 76.504 73.2833C78.3573 74.4299 79.4839 76.0568 79.8852 78.1642C80.2864 80.2715 79.9029 82.6964 78.7352 85.4382L78.2145 86.6605L68.557 80.6866C67.8708 82.4017 67.6952 84.0254 68.0307 85.557C68.3795 87.084 69.1598 88.2218 70.3724 88.9719C71.233 89.5043 72.0519 89.7434 72.8297 89.6901C73.6076 89.636 74.369 89.3977 75.1146 88.9765L76.008 91.2948C73.8711 92.7685 71.6083 92.7662 69.2192 91.2887ZM75.476 75.6971C74.4922 75.0885 73.4818 75.0119 72.4443 75.467C71.4118 75.9115 70.4849 76.8627 69.6641 78.3211L76.8048 82.7391L76.8996 82.5167C77.4651 80.9806 77.6225 79.6204 77.3729 78.4353C77.1271 77.2404 76.4946 76.3273 75.476 75.6971Z" fill="white"/>
<path d="M99.8218 101.19C98.6636 103.405 97.12 104.75 95.1909 105.225C93.2529 105.694 91.2733 105.161 89.2526 103.625L88.8267 103.301C87.4821 102.28 86.4439 101.062 85.7129 99.6479C84.9786 98.2184 84.6046 96.7241 84.5907 95.1659C84.5742 93.5917 84.9053 92.1554 85.5846 90.8569C86.6954 88.7328 88.1392 87.5234 89.9161 87.2279C91.6929 86.9316 93.663 87.6056 95.8265 89.2499L96.7908 89.9825L91.0016 101.051C92.3589 102.026 93.6858 102.38 94.9811 102.112C96.2733 101.828 97.283 100.991 98.009 99.6022C98.5252 98.6152 98.7951 97.6533 98.8191 96.715C98.8431 95.776 98.7142 94.8407 98.4311 93.9085L100.426 93.0403C101.455 95.7356 101.254 98.4522 99.8218 101.19ZM87.4884 92.3039C86.8989 93.431 86.7466 94.6381 87.0309 95.9229C87.3071 97.2024 88.0122 98.3989 89.1452 99.5131L93.4254 91.329L93.2504 91.1958C92.0303 90.3816 90.9201 90.0724 89.9192 90.2681C88.9095 90.4578 88.0994 91.1364 87.4884 92.3039Z" fill="white"/>
</g>
<defs>
<clipPath id="clip0_12_46">
<rect width="115" height="115" fill="white"/>
</clipPath>
</defs>
</svg>
